<?xml version="1.0" standalone="no"?><!DOCTYPE svg PUBLIC "-//W3C//DTD SVG 1.1//EN" "http://www.w3.org/Graphics/SVG/1.1/DTD/svg11.dtd"><svg t="1593056221397" class="icon" viewBox="0 0 1024 1024" version="1.1" xmlns="http://www.w3.org/2000/svg" p-id="949" xmlns:xlink="http://www.w3.org/1999/xlink" width="200" height="200"><defs><style type="text/css"></style></defs><path d="M77.9264 333.2096h868.352c13.1072 0 13.1072-10.24 13.1072-10.24v-92.16a45.4656 45.4656 0 0 0-45.3632-45.3632H109.4656a45.4656 45.4656 0 0 0-45.3632 45.3632v86.3232a14.4384 14.4384 0 0 0 13.824 16.0768zM940.4416 399.36H78.336c-14.2336 0-14.2336 11.3664-14.2336 11.3664v380.5184a45.4656 45.4656 0 0 0 45.3632 45.3632h804.5568a45.4656 45.4656 0 0 0 45.3632-45.3632V417.3824A18.2272 18.2272 0 0 0 940.4416 399.36zM201.6256 540.5696a16.0768 16.0768 0 0 1-16.0768 16.0768h-58.4704a16.0768 16.0768 0 0 1-16.0768-16.0768v-55.9104a16.0768 16.0768 0 0 1 16.0768-16.0768h58.4704a16.0768 16.0768 0 0 1 16.0768 16.0768v56.0128z m124.0064 0a16.0768 16.0768 0 0 1-16.0768 16.0768h-58.4704a16.0768 16.0768 0 0 1-16.0768-16.0768v-55.9104a16.0768 16.0768 0 0 1 16.0768-16.0768h58.4704a16.0768 16.0768 0 0 1 16.0768 16.0768z m226.304 209.1008h-43.2128l-61.44-179.0976h40.96l38.7072 126.6688a83.8656 83.8656 0 0 1 3.584 17.7152h0.7168a95.0272 95.0272 0 0 1 4.1984-18.6368l38.7072-126.1568H614.4l-62.464 179.5072z m161.28-149.504h-15.36V719.872h15.36v29.696h-68.7104v-29.696h15.1552V600.1664h-15.1552v-29.696h68.7104z m158.0032 71.0656a74.0352 74.0352 0 0 1-50.4832 15.872h-19.6608v62.464H762.88V570.4704h61.44q66.8672 0 66.8672 56.6272a54.272 54.272 0 0 1-20.48 44.1344z" p-id="950"></path><path d="M817.9712 600.064h-16.896v57.856h16.5888q33.6896 0 33.6896-29.2864t-33.3824-28.5696z" p-id="951"></path></svg>