<?xml version="1.0" standalone="no"?><!DOCTYPE svg PUBLIC "-//W3C//DTD SVG 1.1//EN" "http://www.w3.org/Graphics/SVG/1.1/DTD/svg11.dtd"><svg t="1593056180796" class="icon" viewBox="0 0 1024 1024" version="1.1" xmlns="http://www.w3.org/2000/svg" p-id="2096" xmlns:xlink="http://www.w3.org/1999/xlink" width="200" height="200"><defs><style type="text/css"></style></defs><path d="M513.072 551.088c130.4 0 236.112-103.664 236.112-231.552s-105.696-231.52-236.112-231.52c-130.4 0-236.112 103.664-236.112 231.536s105.712 231.536 236.112 231.536z m-86.304-214.384c-5.44-0.384-9.6-2.272-12.512-5.616a22.816 22.816 0 0 1-5.28-12.72c0.592-4.944 2.352-8.992 5.28-12.144s7.072-4.928 12.512-5.312h43.456l-40.432-69.84a44.016 44.016 0 0 1-5.744-9.008 24.24 24.24 0 0 1-2.416-12c1.008-5.536 3.024-10.016 6.048-13.456 3.008-3.472 8.656-5.664 16.912-6.672 4.816 0.4 9.152 2.032 12.96 4.896 3.824 2.864 6.96 5.968 9.36 9.312l45.856 82.272 50.416-82.864c2.4-3.344 5.52-6.32 9.328-8.88 3.824-2.56 8.16-4.144 13.008-4.736 3.008 0.208 5.76 0.592 8.272 1.184 2.528 0.592 4.736 1.584 6.64 2.976 1.936 1.376 3.552 3.36 4.848 5.92 1.296 2.544 2.272 5.904 2.864 10.064 0 5.696-2 11.136-6.048 16.272l-46.752 74.576h44.352c5.216 0.4 9.36 2.176 12.368 5.328 3.008 3.152 4.72 7.2 5.12 12.128a21.76 21.76 0 0 1-5.296 13.024c-3.12 3.552-7.28 5.52-12.512 5.904l-57.632 0.304v18.048h57.92c5.232 0.4 9.36 2.368 12.368 5.92s4.72 7.776 5.136 12.736c-0.416 5.12-2.128 9.408-5.136 12.864s-7.136 5.36-12.368 5.76l-57.92-0.304v31.376c-0.816 16.768-10.16 25.136-28.064 25.136-8.864 0-15.76-2.064-20.672-6.208-4.944-4.144-7.616-10.448-8-18.944v-30.768h-58.24c-5.44-0.4-9.6-2.624-12.512-6.656a28.432 28.432 0 0 1-5.28-13.472c0.592-4.944 2.352-8.992 5.28-12.144s7.072-4.928 12.512-5.328h58.24v-18.64l-58.24-0.288z m517.728 282.544c-13.584-17.2-44.144-31.584-106.144 4.112 5.744-25.072-14.672-40.608-38.848-40.608-21.392 0-46.384 5.408-66.256 25.056-28.528-36.608-57.904-32.256-115.04 2.288-21.76 13.152-40.944 24.416-55.248 32.288-3.792 2.096-6.864 3.68-9.904 5.28 5.6 1.088 11.264 2.112 17.52 2.112 80.16 0 143.472 0 143.472 67.76 0 52.096-62.096 67.056-94.944 67.696h-148.512c-61.2 0-121.104-62.128-121.104-62.128s70.736 28.256 121.104 28.256h148.16c0.272 0 60.48-2.336 60.48-33.824 0-28.848-16.272-33.872-108.672-33.872-60.32 0-121.328-34.672-121.328-34.672s-61.04-43.456-79.792-54.896c-44.352-26.992-79.808-52.608-157.264-22.896-49.072 18.864-156.304 67.472-156.304 67.472l98.864 213.728 50.4-31.888c27.888-17.28 43.328-20.256 79.376-2.192 34.896 17.472 142.128 71.792 168.928 84.496 82.384 38.912 117.728 4.064 157.536-18.32 33.968-19.056 274.464-174.272 299.728-191.664 39.472-27.136 51.76-50.816 33.792-73.584z" p-id="2097"></path></svg>