<?xml version="1.0" standalone="no"?><!DOCTYPE svg PUBLIC "-//W3C//DTD SVG 1.1//EN" "http://www.w3.org/Graphics/SVG/1.1/DTD/svg11.dtd"><svg t="1605232441886" class="icon" viewBox="0 0 1024 1024" version="1.1" xmlns="http://www.w3.org/2000/svg" p-id="1156" xmlns:xlink="http://www.w3.org/1999/xlink" width="200" height="200"><defs><style type="text/css"></style></defs><path d="M134.190909 2.909091 889.74432 2.909091C925.827276 2.909091 958.726138 17.672727 982.526138 41.472727 1006.327273 65.272727 1021.090909 98.109091 1021.090909 134.190909L1021.090909 292.772727 921.436364 292.772727C914.436364 237.981818 885.290909 196.809091 850.289775 196.809091 815.353408 196.809091 786.207953 237.919318 779.209088 292.772727L436.527273 292.772727C429.527273 237.981818 400.381818 196.809091 365.444318 196.809091 330.509091 196.809091 301.3625 237.919318 294.3625 292.772727L242.498864 292.772727C235.307955 238.490909 206.353409 197.827273 171.607955 197.827273 136.926136 197.827273 107.971591 238.489773 100.717046 292.835227L2.909091 292.835227 2.909091 134.190909C2.909091 98.107955 17.672727 65.271591 41.472727 41.471591 65.209091 17.672727 98.109091 2.909091 134.190909 2.909091L134.190909 2.909091ZM1021.090909 341.263636 1021.090909 680.636364 920.672727 680.636364C913.990912 625.272727 884.654545 583.718182 849.4 583.718182 814.210228 583.718182 784.873862 625.272727 778.127273 680.636364L723.846592 680.636364C717.482956 624.318179 688.019316 581.618182 652.445452 581.618182 616.809094 581.618182 587.282956 624.318185 581.045455 680.636364L532.618182 680.636364C525.618182 625.909091 496.472727 584.672727 461.472727 584.672727 426.536364 584.672727 397.390909 625.782953 390.390909 680.636364L2.909091 680.636364 2.909091 341.263636 100.209091 341.263636C106.509091 397.581818 136.036364 440.218182 171.609091 440.218182 207.181818 440.218182 236.709091 397.581818 242.945455 341.263636L294.2375 341.263636C300.728409 397.073864 330.127273 439.263636 365.573864 439.263636 401.019318 439.263636 430.419318 397.073864 436.910227 341.263636L779.019316 341.263636C785.637498 397.136364 814.973865 439.263636 850.355683 439.263636 885.802275 439.263636 915.264774 397.073864 921.756817 341.263636L1021.090909 341.263636 1021.090909 341.263636ZM1021.090909 729.190906 1021.090909 889.74432C1021.090909 925.889775 1006.327273 958.726138 982.590906 982.526138 958.790912 1006.327273 925.890909 1021.090909 889.807953 1021.090909L134.190909 1021.090909C98.045455 1021.090909 65.209091 1006.327273 41.409091 982.590906 17.672727 958.790912 2.909091 925.954548 2.909091 889.809088L2.909091 729.254545 390.136364 729.254545C396.690909 785.063633 426.090909 827.190906 461.472727 827.190906 496.854545 827.190906 526.318182 785 532.809091 729.254545L581.490909 729.254545C588.681821 783.472727 617.636364 824.136361 652.381818 824.136361 687.127273 824.136361 716.081821 783.409088 723.272727 729.254545L778.063639 729.254545C784.745455 784.554543 814.081821 826.17159 849.336367 826.17159 884.527273 826.17159 913.863633 784.554543 920.545455 729.254545L1021.090909 729.254545 1021.090909 729.190906 1021.090909 729.190906Z" p-id="1157"></path></svg>