<?xml version="1.0" standalone="no"?><!DOCTYPE svg PUBLIC "-//W3C//DTD SVG 1.1//EN" "http://www.w3.org/Graphics/SVG/1.1/DTD/svg11.dtd"><svg t="1593056111957" class="icon" viewBox="0 0 1024 1024" version="1.1" xmlns="http://www.w3.org/2000/svg" p-id="1915" xmlns:xlink="http://www.w3.org/1999/xlink" width="200" height="200"><defs><style type="text/css"></style></defs><path d="M0 325.398v65.799h1023.543v-65.799H0z m562.247 349.466h-57.582l-61.851 121.363h59.015l60.418-121.363z m127.943 0h-57.582l-58.985 121.363h58.985l57.582-121.363z m238.836 0h-170.61l-56.88 121.363H869.28l59.746-121.363zM903.408 128a119.902 119.902 0 0 1 85.539 37.666 126.951 126.951 0 0 1 34.596 88.814v536.629a126.977 126.977 0 0 1-34.596 88.844 119.902 119.902 0 0 1-85.539 37.637h-781.87a119.902 119.902 0 0 1-85.539-37.637 126.981 126.981 0 0 1-34.596-88.844V254.48c-1.706-67.816 51.631-124.3 119.433-126.481h782.572z" p-id="1916"></path></svg>