<?xml version="1.0" standalone="no"?><!DOCTYPE svg PUBLIC "-//W3C//DTD SVG 1.1//EN" "http://www.w3.org/Graphics/SVG/1.1/DTD/svg11.dtd"><svg t="1593157970650" class="icon" viewBox="0 0 1024 1024" version="1.1" xmlns="http://www.w3.org/2000/svg" p-id="1109" xmlns:xlink="http://www.w3.org/1999/xlink" width="200" height="200"><defs><style type="text/css"></style></defs><path d="M79.968007 746.273273H0v234.15952c0 21.783604 15.982226 43.567207 42.657187 43.567207h261.289492v-81.674295H79.968007v-196.052432z m0-664.314597h223.978672V0.227505H42.657187C15.982226 0.227505 0 22.011109 0 43.794712v245.022884h79.968007V81.9018z m863.836481 860.367029h-223.978672V1024h261.289492c21.328594 0 42.657187-16.323484 42.657187-43.567207v-234.15952h-79.968007v196.052432z m0-658.911353H1023.772495V43.794712C1023.772495 22.011109 1007.790269 0.227505 981.115308 0.227505h-261.289492v81.674295h223.978672V283.471229zM831.815152 170.856254v682.514997H191.957343V170.856254h639.857809z m-192.924239 74.109754L511.886248 436.46834 384.881582 244.966008a36.798934 36.798934 0 0 0-52.78116-10.01022 41.349034 41.349034 0 0 0-9.498334 55.568096l116.311931 175.633859h-102.377249c-20.873584 0-37.936459 17.972895-37.936459 39.927127 0 21.954232 17.062875 39.927127 37.936459 39.927127h135.194845v46.240391H336.53677c-20.873584 0-37.936459 17.972895-37.936459 39.927128 0 21.954232 17.062875 39.927127 37.936459 39.927127h135.194845v81.162408c0 23.888025 18.371029 43.22595 41.121529 43.22595 22.7505 0 41.064652-19.337925 41.064652-43.22595v-81.162408h132.692291c20.873584 0 37.936459-17.972895 37.936458-39.927127 0-21.954232-16.437236-39.927127-37.31082-39.927128H554.543435v-46.240391h132.69229c20.873584 0 37.936459-17.972895 37.936459-39.927127 0-21.954232-17.062875-39.927127-37.936459-39.927127h-102.377249l116.311931-175.633859a41.064652 41.064652 0 0 0-9.498334-55.568096 36.571429 36.571429 0 0 0-52.78116 10.01022z" p-id="1110"></path></svg>