<?xml version="1.0" encoding="UTF-8" standalone="no"?>
<svg
   xmlns:dc="http://purl.org/dc/elements/1.1/"
   xmlns:cc="http://creativecommons.org/ns#"
   xmlns:rdf="http://www.w3.org/1999/02/22-rdf-syntax-ns#"
   xmlns:svg="http://www.w3.org/2000/svg"
   xmlns="http://www.w3.org/2000/svg"
   viewBox="0 0 7162.6665 4645.3335"
   height="4645.3335"
   width="7162.6665"
   xml:space="preserve"
   id="svg2"
   version="1.1"><metadata
     id="metadata8"><rdf:RDF><cc:Work
         rdf:about=""><dc:format>image/svg+xml</dc:format><dc:type
           rdf:resource="http://purl.org/dc/dcmitype/StillImage" /></cc:Work></rdf:RDF></metadata><defs
     id="defs6"><clipPath
       id="clipPath48"
       clipPathUnits="userSpaceOnUse"><path
         style="clip-rule:evenodd"
         id="path46"
         d="m 17244.9,1974.36 c 0,0 1688,5010.61 6373.8,10140.44 4685.7,5129.9 14856.9,14564.3 25010.7,13372.5 2049.8,-1954.5 3146.2,-4862.4 3146.2,-4862.4 0,0 -5529.7,2717.2 -12060.6,-6006.5 C 33184.1,5894.74 32495.2,1123.89 32495.2,1123.89 c 0,0 -7946.4,-1122.21422 -15250.3,850.47 z" /></clipPath></defs><g
     transform="matrix(1.3333333,0,0,-1.3333333,0,4645.3333)"
     id="g10"><g
       transform="scale(0.1)"
       id="g12"><g
         transform="scale(3.29527)"
         id="g14"><path
           id="path16"
           style="fill:#2e3192;fill-opacity:1;fill-rule:evenodd;stroke:none"
           d="M 8150.83,10569.9 C 12650.7,10569.9 16300,8218.35 16300,5318.63 16300,2418.92 12650.7,67.3562 8150.83,67.3562 3650.93,67.3562 1.66313,2418.92 1.66313,5318.63 1.66313,8218.35 3650.93,10569.9 8150.83,10569.9" /></g><g
         transform="scale(3.29527)"
         id="g18"><path
           id="path20"
           style="fill:none;stroke:#231f20;stroke-width:1.72043002;stroke-linecap:butt;stroke-linejoin:miter;stroke-miterlimit:22.92560005;stroke-dasharray:none;stroke-opacity:1"
           d="M 8150.83,10569.9 C 12650.7,10569.9 16300,8218.35 16300,5318.63 16300,2418.92 12650.7,67.3562 8150.83,67.3562 3650.93,67.3562 1.66313,2418.92 1.66313,5318.63 1.66313,8218.35 3650.93,10569.9 8150.83,10569.9 Z" /></g><g
         transform="scale(3.20757)"
         id="g22"><path
           id="path24"
           style="fill:#ffffff;fill-opacity:1;fill-rule:evenodd;stroke:none"
           d="M 8371.69,9346.61 C 12785.5,9209.68 16300,7085.09 16220,4602.2 16140,2119.31 12495.7,216.812 8081.92,353.742 3668.15,490.671 153.607,2615.26 233.611,5098.15 313.616,7581.04 3957.92,9483.54 8371.69,9346.61" /></g><g
         transform="scale(3.20757)"
         id="g26"><path
           id="path28"
           style="fill:none;stroke:#231f20;stroke-width:1.76747;stroke-linecap:butt;stroke-linejoin:miter;stroke-miterlimit:22.92560005;stroke-dasharray:none;stroke-opacity:1"
           d="M 8371.69,9346.61 C 12785.5,9209.68 16300,7085.09 16220,4602.2 16140,2119.31 12495.7,216.812 8081.92,353.742 3668.15,490.671 153.607,2615.26 233.611,5098.15 313.616,7581.04 3957.92,9483.54 8371.69,9346.61 Z" /></g><g
         transform="scale(3.21665)"
         id="g30"><path
           id="path32"
           style="fill:#ed1c24;fill-opacity:1;fill-rule:evenodd;stroke:none"
           d="m 2048.08,7805.99 360.44,-5.98 1108.31,-314.44 784.19,-538.73 858.11,-995.92 1150.45,-1335.22 653.79,-560.15 502.2,-374.5 1284.32,-666.51 1397.71,-417.99 1434.9,-232.16 1718.8,-11.15 1250.9,319.23 848,463.08 600.8,600.76 296,1056.57 3,1110.88 -526.4,-666.96 -955,-581.29 -892.8,-221.59 -880.5,-11.99 -1238.5,276.66 -1325.9,555.34 -1292.57,1018.34 -1500.5,1303.57 -1653.64,953.47 -1279.85,303.74 -874.23,-131.59 -1832.03,-895.47" /></g><g
         transform="scale(3.21665)"
         id="g34"><path
           id="path36"
           style="fill:none;stroke:#231f20;stroke-width:1.76249003;stroke-linecap:butt;stroke-linejoin:miter;stroke-miterlimit:22.92560005;stroke-dasharray:none;stroke-opacity:1"
           d="m 2048.08,7805.99 360.44,-5.98 1108.31,-314.44 784.19,-538.73 858.11,-995.92 1150.45,-1335.22 653.79,-560.15 502.2,-374.5 1284.32,-666.51 1397.71,-417.99 1434.9,-232.16 1718.8,-11.15 1250.9,319.23 848,463.08 600.8,600.76 296,1056.57 3,1110.88 -526.4,-666.96 -955,-581.29 -892.8,-221.59 -880.5,-11.99 -1238.5,276.66 -1325.9,555.34 -1292.57,1018.34 -1500.5,1303.57 -1653.64,953.47 -1279.85,303.74 -874.23,-131.59 z" /></g><g
         transform="scale(3.17642)"
         id="g38"><path
           id="path40"
           style="fill:#ed1c24;fill-opacity:1;fill-rule:evenodd;stroke:none"
           d="m 5429.05,621.569 c 0,0 531.4,1577.441 2006.57,3192.421 1475.17,1614.98 4677.28,4585.11 7873.88,4209.92 645.3,-615.31 990.5,-1530.77 990.5,-1530.77 0,0 -1740.9,855.43 -3796.9,-1890.96 -2056.1,-2746.4 -2273,-4248.357 -2273,-4248.357 0,0 -2501.66,-353.295431 -4801.05,267.746" /></g><g
         id="g42"><g
           clip-path="url(#clipPath48)"
           id="g44"><g
             transform="scale(2.42588)"
             id="g50"><path
               id="path52"
               style="fill:#ffffff;fill-opacity:1;fill-rule:evenodd;stroke:none"
               d="m 12484.4,7826.57 c 40.5,46.72 1635.1,-1127.68 1635.1,-1127.68 l 1855.3,-656.4 325.2,-115.06 -629.9,-843.55 -483.3,-716.4 -620.9,-1007.46 -109.7,-191.79 -1405.9,282.98 -2393.9,864.36 -991.66,607.11 1151.86,1184.55 1451.7,1295.46 216.1,423.88" /></g><g
             transform="scale(2.42588)"
             id="g54"><path
               id="path56"
               style="fill:none;stroke:#231f20;stroke-width:2.33699989;stroke-linecap:butt;stroke-linejoin:miter;stroke-miterlimit:22.92560005;stroke-dasharray:none;stroke-opacity:1"
               d="m 12484.4,7826.57 c 40.5,46.72 1635.1,-1127.68 1635.1,-1127.68 l 1855.3,-656.4 325.2,-115.06 -629.9,-843.55 -483.3,-716.4 -620.9,-1007.46 -109.7,-191.79 -1405.9,282.98 -2393.9,864.36 -991.66,607.11 1151.86,1184.55 1451.7,1295.46 z" /></g><g
             transform="scale(3.15513)"
             id="g58"><path
               id="path60"
               style="fill:#ffffff;fill-opacity:1;fill-rule:evenodd;stroke:none"
               d="m 16181.3,7189.31 c 0,0 -1510.6,197.7 -2794.2,-737.81 C 12103.5,5515.98 9798.51,3124.87 8876.37,258.509 c 497.17,9.072 800.03,36.571 800.03,36.571 0,0 262.25,1442.18 886.4,2340.38 624.1,898.21 1530.7,2363.77 2497.6,3134.32 967,770.55 1851.2,1394.49 3239.6,1203.88 -51.7,96.81 -118.7,215.65 -118.7,215.65 z m -575.2,703.47 c 0,0 -1563.6,400.18 -3512.6,-838.74 C 10144.4,5815.11 7277.88,3577.57 6302.77,440.811 6652.49,383.666 6921.08,348.247 7142.87,325.305 7219.19,674.891 8195.39,3458.12 10915,5800 c 2719.6,2341.88 4460.6,1882.07 4846,1916.25 -95.9,112.23 -154.9,176.53 -154.9,176.53 z m 288.6,-326.77 c 0,0 -1776.6,198.14 -3060.9,-723.5 C 11549.6,5920.87 9751.6,4349.55 8799.74,2778.22 7847.88,1206.9 7683.96,321.109 7683.96,321.109 l 659.03,-63.972 c 0,0 293.71,1313.973 1182.22,2651.853 888.49,1337.87 1661.69,2165.78 2825.09,3132.75 1163.4,966.97 1689.5,1217.32 3687.4,1316.5 -86.3,128.36 -143,207.77 -143,207.77" /></g></g></g><g
         transform="scale(3.17642)"
         id="g62"><path
           id="path64"
           style="fill:none;stroke:#2e3192;stroke-width:178.47999573;stroke-linecap:butt;stroke-linejoin:miter;stroke-miterlimit:22.92560005;stroke-dasharray:none;stroke-opacity:1"
           d="m 5429.05,621.569 c 0,0 531.4,1577.441 2006.57,3192.421 1475.17,1614.98 4677.28,4585.11 7873.88,4209.92 645.3,-615.31 990.5,-1530.77 990.5,-1530.77 0,0 -1740.9,855.43 -3796.9,-1890.96 -2056.1,-2746.4 -2273,-4248.357 -2273,-4248.357 0,0 -2501.66,-353.295431 -4801.05,267.746 z" /></g><g
         transform="scale(3.29453)"
         id="g66"><path
           id="path68"
           style="fill:none;stroke:#2e3192;stroke-width:172.08200073;stroke-linecap:butt;stroke-linejoin:miter;stroke-miterlimit:22.92560005;stroke-dasharray:none;stroke-opacity:1"
           d="m 2000.1,7625.26 c 0,0 1440.5,125.47 2511.25,-1162.33 1070.75,-1287.79 2112.56,-2749.22 3921.26,-3472.7 1808.69,-723.48 4225.09,-940.53 5454.99,-506.44 1230,434.09 2412.4,1335.83 1987.6,3508.57 25,-711.97 -1681.1,-2105 -3810.7,-1555.17 C 9934.87,4987.02 9387.61,5768.39 8910.11,6188.01 8432.61,6607.63 6417.25,8763 4219.92,8625.83 2960.19,8280.32 2000.1,7625.26 2000.1,7625.26 Z" /></g></g></g></svg>